<svg xmlns="http://www.w3.org/2000/svg" version="1.1" xmlns:xlink="http://www.w3.org/1999/xlink" xmlns:svgjs="http://svgjs.com/svgjs" width="1440" height="560" preserveAspectRatio="none" viewBox="0 0 1440 560"><g mask="url(&quot;#SvgjsMask1003&quot;)" fill="none"><rect width="1440" height="560" x="0" y="0" fill="rgba(103, 148, 195, 1)"></rect><path d="M678 373L677 21" stroke-width="6" stroke="url(#SvgjsLinearGradient1004)" stroke-linecap="round" class="Up"></path><path d="M214 190L213 -173" stroke-width="6" stroke="url(#SvgjsLinearGradient1005)" stroke-linecap="round" class="Down"></path><path d="M1194 293L1193 -31" stroke-width="10" stroke="url(#SvgjsLinearGradient1005)" stroke-linecap="round" class="Down"></path><path d="M366 510L365 153" stroke-width="8" stroke="url(#SvgjsLinearGradient1004)" stroke-linecap="round" class="Up"></path><path d="M957 30L956 -288" stroke-width="10" stroke="url(#SvgjsLinearGradient1004)" stroke-linecap="round" class="Up"></path><path d="M475 221L474 365" stroke-width="6" stroke="url(#SvgjsLinearGradient1005)" stroke-linecap="round" class="Down"></path><path d="M732 316L731 461" stroke-width="8" stroke="url(#SvgjsLinearGradient1004)" stroke-linecap="round" class="Up"></path><path d="M1180 210L1179 -173" stroke-width="6" stroke="url(#SvgjsLinearGradient1004)" stroke-linecap="round" class="Up"></path><path d="M1241 514L1240 167" stroke-width="6" stroke="url(#SvgjsLinearGradient1005)" stroke-linecap="round" class="Down"></path><path d="M775 175L774 -147" stroke-width="6" stroke="url(#SvgjsLinearGradient1005)" stroke-linecap="round" class="Down"></path><path d="M108 176L107 -148" stroke-width="10" stroke="url(#SvgjsLinearGradient1004)" stroke-linecap="round" class="Up"></path><path d="M688 215L687 -39" stroke-width="8" stroke="url(#SvgjsLinearGradient1004)" stroke-linecap="round" class="Up"></path><path d="M68 356L67 20" stroke-width="6" stroke="url(#SvgjsLinearGradient1004)" stroke-linecap="round" class="Up"></path><path d="M887 220L886 446" stroke-width="10" stroke="url(#SvgjsLinearGradient1004)" stroke-linecap="round" class="Up"></path><path d="M1306 518L1305 164" stroke-width="8" stroke="url(#SvgjsLinearGradient1004)" stroke-linecap="round" class="Up"></path><path d="M323 485L322 304" stroke-width="6" stroke="url(#SvgjsLinearGradient1004)" stroke-linecap="round" class="Up"></path><path d="M836 432L835 806" stroke-width="10" stroke="url(#SvgjsLinearGradient1004)" stroke-linecap="round" class="Up"></path><path d="M910 0L909 -227" stroke-width="6" stroke="url(#SvgjsLinearGradient1005)" stroke-linecap="round" class="Down"></path><path d="M514 415L513 224" stroke-width="10" stroke="url(#SvgjsLinearGradient1004)" stroke-linecap="round" class="Up"></path><path d="M654 395L653 68" stroke-width="6" stroke="url(#SvgjsLinearGradient1005)" stroke-linecap="round" class="Down"></path><path d="M647 301L646 -32" stroke-width="8" stroke="url(#SvgjsLinearGradient1005)" stroke-linecap="round" class="Down"></path><path d="M1436 48L1435 -262" stroke-width="8" stroke="url(#SvgjsLinearGradient1004)" stroke-linecap="round" class="Up"></path><path d="M486 314L485 -17" stroke-width="10" stroke="url(#SvgjsLinearGradient1005)" stroke-linecap="round" class="Down"></path><path d="M602 351L601 66" stroke-width="8" stroke="url(#SvgjsLinearGradient1005)" stroke-linecap="round" class="Down"></path><path d="M399 303L398 117" stroke-width="6" stroke="url(#SvgjsLinearGradient1005)" stroke-linecap="round" class="Down"></path><path d="M1354 409L1353 110" stroke-width="6" stroke="url(#SvgjsLinearGradient1004)" stroke-linecap="round" class="Up"></path><path d="M895 61L894 -272" stroke-width="10" stroke="url(#SvgjsLinearGradient1004)" stroke-linecap="round" class="Up"></path><path d="M86 29L85 353" stroke-width="6" stroke="url(#SvgjsLinearGradient1005)" stroke-linecap="round" class="Down"></path><path d="M1194 445L1193 739" stroke-width="6" stroke="url(#SvgjsLinearGradient1005)" stroke-linecap="round" class="Down"></path><path d="M367 26L366 328" stroke-width="6" stroke="url(#SvgjsLinearGradient1005)" stroke-linecap="round" class="Down"></path><path d="M178 283L177 472" stroke-width="8" stroke="url(#SvgjsLinearGradient1005)" stroke-linecap="round" class="Down"></path><path d="M456 516L455 187" stroke-width="8" stroke="url(#SvgjsLinearGradient1004)" stroke-linecap="round" class="Up"></path><path d="M47 177L46 -133" stroke-width="10" stroke="url(#SvgjsLinearGradient1005)" stroke-linecap="round" class="Down"></path><path d="M1139 160L1138 -46" stroke-width="10" stroke="url(#SvgjsLinearGradient1005)" stroke-linecap="round" class="Down"></path><path d="M929 243L928 599" stroke-width="6" stroke="url(#SvgjsLinearGradient1004)" stroke-linecap="round" class="Up"></path><path d="M113 354L112 111" stroke-width="6" stroke="url(#SvgjsLinearGradient1005)" stroke-linecap="round" class="Down"></path></g><defs><mask id="SvgjsMask1003"><rect width="1440" height="560" fill="#ffffff"></rect></mask><linearGradient x1="0%" y1="100%" x2="0%" y2="0%" id="SvgjsLinearGradient1004"><stop stop-color="rgba(28, 83, 142, 0)" offset="0"></stop><stop stop-color="#1c538e" offset="1"></stop></linearGradient><linearGradient x1="0%" y1="0%" x2="0%" y2="100%" id="SvgjsLinearGradient1005"><stop stop-color="rgba(28, 83, 142, 0)" offset="0"></stop><stop stop-color="#1c538e" offset="1"></stop></linearGradient></defs></svg>