<svg xmlns="http://www.w3.org/2000/svg" version="1.1" xmlns:xlink="http://www.w3.org/1999/xlink" xmlns:svgjs="http://svgjs.com/svgjs" width="1440" height="560" preserveAspectRatio="none" viewBox="0 0 1440 560"><g mask="url(&quot;#SvgjsMask1010&quot;)" fill="none"><rect width="1440" height="560" x="0" y="0" fill="rgba(146, 173, 201, 1)"></rect><path d="M-75.16 385.3L-75.16 385.3" stroke="rgba(69, 111, 200, 1)" stroke-width="1.5"></path><path d="M-75.16 385.3L-62.32 523.23" stroke="rgba(69, 111, 200, 1)" stroke-width="1.5"></path><path d="M-75.16 385.3L111.85 353.82" stroke="rgba(69, 111, 200, 1)" stroke-width="1.5"></path><path d="M-62.32 523.23L-62.32 523.23" stroke="rgba(69, 111, 200, 1)" stroke-width="1.5"></path><path d="M-62.32 523.23L78.92 540.82" stroke="rgba(69, 111, 200, 1)" stroke-width="1.5"></path><path d="M-111.43 666.54L-111.43 666.54" stroke="rgba(69, 111, 200, 1)" stroke-width="1.5"></path><path d="M-111.43 666.54L-62.32 523.23" stroke="rgba(69, 111, 200, 1)" stroke-width="1.5"></path><path d="M-111.43 666.54L85.77 639.65" stroke="rgba(69, 111, 200, 1)" stroke-width="1.5"></path><path d="M-111.43 666.54L78.92 540.82" stroke="rgba(69, 111, 200, 1)" stroke-width="1.5"></path><path d="M111.85 353.82L111.85 353.82" stroke="rgba(69, 111, 200, 1)" stroke-width="1.5"></path><path d="M111.85 353.82L201.4 398.6" stroke="rgba(69, 111, 200, 1)" stroke-width="1.5"></path><path d="M111.85 353.82L78.92 540.82" stroke="rgba(69, 111, 200, 1)" stroke-width="1.5"></path><path d="M78.92 540.82L78.92 540.82" stroke="rgba(69, 111, 200, 1)" stroke-width="1.5"></path><path d="M78.92 540.82L85.77 639.65" stroke="rgba(69, 111, 200, 1)" stroke-width="1.5"></path><path d="M78.92 540.82L197.46 561.34" stroke="rgba(69, 111, 200, 1)" stroke-width="1.5"></path><path d="M85.77 639.65L85.77 639.65" stroke="rgba(69, 111, 200, 1)" stroke-width="1.5"></path><path d="M85.77 639.65L199.56 703.13" stroke="rgba(69, 111, 200, 1)" stroke-width="1.5"></path><path d="M85.77 639.65L197.46 561.34" stroke="rgba(69, 111, 200, 1)" stroke-width="1.5"></path><path d="M85.77 639.65L-62.32 523.23" stroke="rgba(69, 111, 200, 1)" stroke-width="1.5"></path><path d="M201.4 398.6L201.4 398.6" stroke="rgba(69, 111, 200, 1)" stroke-width="1.5"></path><path d="M197.46 561.34L197.46 561.34" stroke="rgba(69, 111, 200, 1)" stroke-width="1.5"></path><path d="M197.46 561.34L199.56 703.13" stroke="rgba(69, 111, 200, 1)" stroke-width="1.5"></path><path d="M199.56 703.13L199.56 703.13" stroke="rgba(69, 111, 200, 1)" stroke-width="1.5"></path><path d="M199.56 703.13L371.66 702.17" stroke="rgba(69, 111, 200, 1)" stroke-width="1.5"></path><path d="M199.56 703.13L78.92 540.82" stroke="rgba(69, 111, 200, 1)" stroke-width="1.5"></path><path d="M199.56 703.13L378.81 492.39" stroke="rgba(69, 111, 200, 1)" stroke-width="1.5"></path><path d="M347.07 360.52L347.07 360.52" stroke="rgba(69, 111, 200, 1)" stroke-width="1.5"></path><path d="M347.07 360.52L378.81 492.39" stroke="rgba(69, 111, 200, 1)" stroke-width="1.5"></path><path d="M378.81 492.39L378.81 492.39" stroke="rgba(69, 111, 200, 1)" stroke-width="1.5"></path><path d="M378.81 492.39L490.94 381.22" stroke="rgba(69, 111, 200, 1)" stroke-width="1.5"></path><path d="M378.81 492.39L197.46 561.34" stroke="rgba(69, 111, 200, 1)" stroke-width="1.5"></path><path d="M378.81 492.39L201.4 398.6" stroke="rgba(69, 111, 200, 1)" stroke-width="1.5"></path><path d="M378.81 492.39L507.1 647.38" stroke="rgba(69, 111, 200, 1)" stroke-width="1.5"></path><path d="M378.81 492.39L371.66 702.17" stroke="rgba(69, 111, 200, 1)" stroke-width="1.5"></path><path d="M371.66 702.17L371.66 702.17" stroke="rgba(69, 111, 200, 1)" stroke-width="1.5"></path><path d="M371.66 702.17L507.1 647.38" stroke="rgba(69, 111, 200, 1)" stroke-width="1.5"></path><path d="M371.66 702.17L197.46 561.34" stroke="rgba(69, 111, 200, 1)" stroke-width="1.5"></path><path d="M371.66 702.17L641.1 661.26" stroke="rgba(69, 111, 200, 1)" stroke-width="1.5"></path><path d="M490.94 381.22L490.94 381.22" stroke="rgba(69, 111, 200, 1)" stroke-width="1.5"></path><path d="M490.94 381.22L347.07 360.52" stroke="rgba(69, 111, 200, 1)" stroke-width="1.5"></path><path d="M490.94 381.22L646.44 500.84" stroke="rgba(69, 111, 200, 1)" stroke-width="1.5"></path><path d="M507.1 647.38L507.1 647.38" stroke="rgba(69, 111, 200, 1)" stroke-width="1.5"></path><path d="M507.1 647.38L641.1 661.26" stroke="rgba(69, 111, 200, 1)" stroke-width="1.5"></path><path d="M507.1 647.38L646.44 500.84" stroke="rgba(69, 111, 200, 1)" stroke-width="1.5"></path><path d="M704.4 338.02L704.4 338.02" stroke="rgba(69, 111, 200, 1)" stroke-width="1.5"></path><path d="M704.4 338.02L845.64 339.52" stroke="rgba(69, 111, 200, 1)" stroke-width="1.5"></path><path d="M704.4 338.02L646.44 500.84" stroke="rgba(69, 111, 200, 1)" stroke-width="1.5"></path><path d="M704.4 338.02L846.21 193.17" stroke="rgba(69, 111, 200, 1)" stroke-width="1.5"></path><path d="M704.4 338.02L815.22 524.57" stroke="rgba(69, 111, 200, 1)" stroke-width="1.5"></path><path d="M704.4 338.02L490.94 381.22" stroke="rgba(69, 111, 200, 1)" stroke-width="1.5"></path><path d="M646.44 500.84L646.44 500.84" stroke="rgba(69, 111, 200, 1)" stroke-width="1.5"></path><path d="M646.44 500.84L641.1 661.26" stroke="rgba(69, 111, 200, 1)" stroke-width="1.5"></path><path d="M646.44 500.84L815.22 524.57" stroke="rgba(69, 111, 200, 1)" stroke-width="1.5"></path><path d="M641.1 661.26L641.1 661.26" stroke="rgba(69, 111, 200, 1)" stroke-width="1.5"></path><path d="M641.1 661.26L808.82 639.99" stroke="rgba(69, 111, 200, 1)" stroke-width="1.5"></path><path d="M641.1 661.26L815.22 524.57" stroke="rgba(69, 111, 200, 1)" stroke-width="1.5"></path><path d="M846.21 193.17L846.21 193.17" stroke="rgba(69, 111, 200, 1)" stroke-width="1.5"></path><path d="M846.21 193.17L845.64 339.52" stroke="rgba(69, 111, 200, 1)" stroke-width="1.5"></path><path d="M846.21 193.17L993.34 204.36" stroke="rgba(69, 111, 200, 1)" stroke-width="1.5"></path><path d="M845.64 339.52L845.64 339.52" stroke="rgba(69, 111, 200, 1)" stroke-width="1.5"></path><path d="M845.64 339.52L960.86 402.08" stroke="rgba(69, 111, 200, 1)" stroke-width="1.5"></path><path d="M815.22 524.57L815.22 524.57" stroke="rgba(69, 111, 200, 1)" stroke-width="1.5"></path><path d="M815.22 524.57L808.82 639.99" stroke="rgba(69, 111, 200, 1)" stroke-width="1.5"></path><path d="M815.22 524.57L991.47 500.42" stroke="rgba(69, 111, 200, 1)" stroke-width="1.5"></path><path d="M815.22 524.57L845.64 339.52" stroke="rgba(69, 111, 200, 1)" stroke-width="1.5"></path><path d="M815.22 524.57L960.86 402.08" stroke="rgba(69, 111, 200, 1)" stroke-width="1.5"></path><path d="M808.82 639.99L808.82 639.99" stroke="rgba(69, 111, 200, 1)" stroke-width="1.5"></path><path d="M808.82 639.99L1011.44 679.46" stroke="rgba(69, 111, 200, 1)" stroke-width="1.5"></path><path d="M808.82 639.99L646.44 500.84" stroke="rgba(69, 111, 200, 1)" stroke-width="1.5"></path><path d="M808.82 639.99L991.47 500.42" stroke="rgba(69, 111, 200, 1)" stroke-width="1.5"></path><path d="M808.82 639.99L960.86 402.08" stroke="rgba(69, 111, 200, 1)" stroke-width="1.5"></path><path d="M1000.77 -41.57L1000.77 -41.57" stroke="rgba(69, 111, 200, 1)" stroke-width="1.5"></path><path d="M1000.77 -41.57L1140.57 -61.04" stroke="rgba(69, 111, 200, 1)" stroke-width="1.5"></path><path d="M1000.77 -41.57L1125.32 90.31" stroke="rgba(69, 111, 200, 1)" stroke-width="1.5"></path><path d="M1000.77 -41.57L993.34 204.36" stroke="rgba(69, 111, 200, 1)" stroke-width="1.5"></path><path d="M1000.77 -41.57L846.21 193.17" stroke="rgba(69, 111, 200, 1)" stroke-width="1.5"></path><path d="M1000.77 -41.57L1280.64 -73.7" stroke="rgba(69, 111, 200, 1)" stroke-width="1.5"></path><path d="M1000.77 -41.57L1154.33 210.43" stroke="rgba(69, 111, 200, 1)" stroke-width="1.5"></path><path d="M993.34 204.36L993.34 204.36" stroke="rgba(69, 111, 200, 1)" stroke-width="1.5"></path><path d="M993.34 204.36L1154.33 210.43" stroke="rgba(69, 111, 200, 1)" stroke-width="1.5"></path><path d="M993.34 204.36L1125.32 90.31" stroke="rgba(69, 111, 200, 1)" stroke-width="1.5"></path><path d="M993.34 204.36L845.64 339.52" stroke="rgba(69, 111, 200, 1)" stroke-width="1.5"></path><path d="M960.86 402.08L960.86 402.08" stroke="rgba(69, 111, 200, 1)" stroke-width="1.5"></path><path d="M960.86 402.08L991.47 500.42" stroke="rgba(69, 111, 200, 1)" stroke-width="1.5"></path><path d="M991.47 500.42L991.47 500.42" stroke="rgba(69, 111, 200, 1)" stroke-width="1.5"></path><path d="M991.47 500.42L1154.83 536.5" stroke="rgba(69, 111, 200, 1)" stroke-width="1.5"></path><path d="M991.47 500.42L1011.44 679.46" stroke="rgba(69, 111, 200, 1)" stroke-width="1.5"></path><path d="M991.47 500.42L1133.3 638.69" stroke="rgba(69, 111, 200, 1)" stroke-width="1.5"></path><path d="M991.47 500.42L845.64 339.52" stroke="rgba(69, 111, 200, 1)" stroke-width="1.5"></path><path d="M1011.44 679.46L1011.44 679.46" stroke="rgba(69, 111, 200, 1)" stroke-width="1.5"></path><path d="M1011.44 679.46L1133.3 638.69" stroke="rgba(69, 111, 200, 1)" stroke-width="1.5"></path><path d="M1140.57 -61.04L1140.57 -61.04" stroke="rgba(69, 111, 200, 1)" stroke-width="1.5"></path><path d="M1140.57 -61.04L1280.64 -73.7" stroke="rgba(69, 111, 200, 1)" stroke-width="1.5"></path><path d="M1140.57 -61.04L1125.32 90.31" stroke="rgba(69, 111, 200, 1)" stroke-width="1.5"></path><path d="M1140.57 -61.04L1288.15 60.86" stroke="rgba(69, 111, 200, 1)" stroke-width="1.5"></path><path d="M1140.57 -61.04L1154.33 210.43" stroke="rgba(69, 111, 200, 1)" stroke-width="1.5"></path><path d="M1125.32 90.31L1125.32 90.31" stroke="rgba(69, 111, 200, 1)" stroke-width="1.5"></path><path d="M1125.32 90.31L1154.33 210.43" stroke="rgba(69, 111, 200, 1)" stroke-width="1.5"></path><path d="M1154.33 210.43L1154.33 210.43" stroke="rgba(69, 111, 200, 1)" stroke-width="1.5"></path><path d="M1154.33 210.43L1274.23 232.5" stroke="rgba(69, 111, 200, 1)" stroke-width="1.5"></path><path d="M1154.33 210.43L1157.89 348.89" stroke="rgba(69, 111, 200, 1)" stroke-width="1.5"></path><path d="M1157.89 348.89L1157.89 348.89" stroke="rgba(69, 111, 200, 1)" stroke-width="1.5"></path><path d="M1157.89 348.89L1241.75 390.15" stroke="rgba(69, 111, 200, 1)" stroke-width="1.5"></path><path d="M1157.89 348.89L1274.23 232.5" stroke="rgba(69, 111, 200, 1)" stroke-width="1.5"></path><path d="M1154.83 536.5L1154.83 536.5" stroke="rgba(69, 111, 200, 1)" stroke-width="1.5"></path><path d="M1154.83 536.5L1133.3 638.69" stroke="rgba(69, 111, 200, 1)" stroke-width="1.5"></path><path d="M1154.83 536.5L1303.46 529.08" stroke="rgba(69, 111, 200, 1)" stroke-width="1.5"></path><path d="M1154.83 536.5L1241.75 390.15" stroke="rgba(69, 111, 200, 1)" stroke-width="1.5"></path><path d="M1154.83 536.5L1157.89 348.89" stroke="rgba(69, 111, 200, 1)" stroke-width="1.5"></path><path d="M1154.83 536.5L1011.44 679.46" stroke="rgba(69, 111, 200, 1)" stroke-width="1.5"></path><path d="M1133.3 638.69L1133.3 638.69" stroke="rgba(69, 111, 200, 1)" stroke-width="1.5"></path><path d="M1133.3 638.69L1304.53 694.66" stroke="rgba(69, 111, 200, 1)" stroke-width="1.5"></path><path d="M1280.64 -73.7L1280.64 -73.7" stroke="rgba(69, 111, 200, 1)" stroke-width="1.5"></path><path d="M1280.64 -73.7L1288.15 60.86" stroke="rgba(69, 111, 200, 1)" stroke-width="1.5"></path><path d="M1280.64 -73.7L1449.83 -99.89" stroke="rgba(69, 111, 200, 1)" stroke-width="1.5"></path><path d="M1280.64 -73.7L1409.01 76.6" stroke="rgba(69, 111, 200, 1)" stroke-width="1.5"></path><path d="M1288.15 60.86L1288.15 60.86" stroke="rgba(69, 111, 200, 1)" stroke-width="1.5"></path><path d="M1288.15 60.86L1409.01 76.6" stroke="rgba(69, 111, 200, 1)" stroke-width="1.5"></path><path d="M1288.15 60.86L1125.32 90.31" stroke="rgba(69, 111, 200, 1)" stroke-width="1.5"></path><path d="M1288.15 60.86L1274.23 232.5" stroke="rgba(69, 111, 200, 1)" stroke-width="1.5"></path><path d="M1274.23 232.5L1274.23 232.5" stroke="rgba(69, 111, 200, 1)" stroke-width="1.5"></path><path d="M1274.23 232.5L1241.75 390.15" stroke="rgba(69, 111, 200, 1)" stroke-width="1.5"></path><path d="M1274.23 232.5L1438.81 208.91" stroke="rgba(69, 111, 200, 1)" stroke-width="1.5"></path><path d="M1274.23 232.5L1441.35 344.33" stroke="rgba(69, 111, 200, 1)" stroke-width="1.5"></path><path d="M1241.75 390.15L1241.75 390.15" stroke="rgba(69, 111, 200, 1)" stroke-width="1.5"></path><path d="M1241.75 390.15L1303.46 529.08" stroke="rgba(69, 111, 200, 1)" stroke-width="1.5"></path><path d="M1303.46 529.08L1303.46 529.08" stroke="rgba(69, 111, 200, 1)" stroke-width="1.5"></path><path d="M1303.46 529.08L1445.29 556.73" stroke="rgba(69, 111, 200, 1)" stroke-width="1.5"></path><path d="M1303.46 529.08L1304.53 694.66" stroke="rgba(69, 111, 200, 1)" stroke-width="1.5"></path><path d="M1303.46 529.08L1445.75 638.03" stroke="rgba(69, 111, 200, 1)" stroke-width="1.5"></path><path d="M1304.53 694.66L1304.53 694.66" stroke="rgba(69, 111, 200, 1)" stroke-width="1.5"></path><path d="M1304.53 694.66L1445.75 638.03" stroke="rgba(69, 111, 200, 1)" stroke-width="1.5"></path><path d="M1304.53 694.66L1445.29 556.73" stroke="rgba(69, 111, 200, 1)" stroke-width="1.5"></path><path d="M1304.53 694.66L1154.83 536.5" stroke="rgba(69, 111, 200, 1)" stroke-width="1.5"></path><path d="M1304.53 694.66L1011.44 679.46" stroke="rgba(69, 111, 200, 1)" stroke-width="1.5"></path><path d="M1449.83 -99.89L1449.83 -99.89" stroke="rgba(69, 111, 200, 1)" stroke-width="1.5"></path><path d="M1449.83 -99.89L1576.67 -104.04" stroke="rgba(69, 111, 200, 1)" stroke-width="1.5"></path><path d="M1409.01 76.6L1409.01 76.6" stroke="rgba(69, 111, 200, 1)" stroke-width="1.5"></path><path d="M1409.01 76.6L1438.81 208.91" stroke="rgba(69, 111, 200, 1)" stroke-width="1.5"></path><path d="M1409.01 76.6L1449.83 -99.89" stroke="rgba(69, 111, 200, 1)" stroke-width="1.5"></path><path d="M1409.01 76.6L1598.56 69.34" stroke="rgba(69, 111, 200, 1)" stroke-width="1.5"></path><path d="M1438.81 208.91L1438.81 208.91" stroke="rgba(69, 111, 200, 1)" stroke-width="1.5"></path><path d="M1438.81 208.91L1554.02 225.39" stroke="rgba(69, 111, 200, 1)" stroke-width="1.5"></path><path d="M1438.81 208.91L1441.35 344.33" stroke="rgba(69, 111, 200, 1)" stroke-width="1.5"></path><path d="M1438.81 208.91L1538.12 365.42" stroke="rgba(69, 111, 200, 1)" stroke-width="1.5"></path><path d="M1441.35 344.33L1441.35 344.33" stroke="rgba(69, 111, 200, 1)" stroke-width="1.5"></path><path d="M1441.35 344.33L1538.12 365.42" stroke="rgba(69, 111, 200, 1)" stroke-width="1.5"></path><path d="M1441.35 344.33L1554.02 225.39" stroke="rgba(69, 111, 200, 1)" stroke-width="1.5"></path><path d="M1445.29 556.73L1445.29 556.73" stroke="rgba(69, 111, 200, 1)" stroke-width="1.5"></path><path d="M1445.29 556.73L1445.75 638.03" stroke="rgba(69, 111, 200, 1)" stroke-width="1.5"></path><path d="M1445.29 556.73L1543.5 518.92" stroke="rgba(69, 111, 200, 1)" stroke-width="1.5"></path><path d="M1445.75 638.03L1445.75 638.03" stroke="rgba(69, 111, 200, 1)" stroke-width="1.5"></path><path d="M1445.75 638.03L1543.5 518.92" stroke="rgba(69, 111, 200, 1)" stroke-width="1.5"></path><path d="M1445.75 638.03L1609.44 645.9" stroke="rgba(69, 111, 200, 1)" stroke-width="1.5"></path><path d="M1576.67 -104.04L1576.67 -104.04" stroke="rgba(69, 111, 200, 1)" stroke-width="1.5"></path><path d="M1576.67 -104.04L1598.56 69.34" stroke="rgba(69, 111, 200, 1)" stroke-width="1.5"></path><path d="M1576.67 -104.04L1409.01 76.6" stroke="rgba(69, 111, 200, 1)" stroke-width="1.5"></path><path d="M1598.56 69.34L1598.56 69.34" stroke="rgba(69, 111, 200, 1)" stroke-width="1.5"></path><path d="M1598.56 69.34L1554.02 225.39" stroke="rgba(69, 111, 200, 1)" stroke-width="1.5"></path><path d="M1554.02 225.39L1554.02 225.39" stroke="rgba(69, 111, 200, 1)" stroke-width="1.5"></path><path d="M1554.02 225.39L1538.12 365.42" stroke="rgba(69, 111, 200, 1)" stroke-width="1.5"></path><path d="M1538.12 365.42L1538.12 365.42" stroke="rgba(69, 111, 200, 1)" stroke-width="1.5"></path><path d="M1538.12 365.42L1543.5 518.92" stroke="rgba(69, 111, 200, 1)" stroke-width="1.5"></path><path d="M1543.5 518.92L1543.5 518.92" stroke="rgba(69, 111, 200, 1)" stroke-width="1.5"></path><path d="M1543.5 518.92L1609.44 645.9" stroke="rgba(69, 111, 200, 1)" stroke-width="1.5"></path><path d="M1543.5 518.92L1441.35 344.33" stroke="rgba(69, 111, 200, 1)" stroke-width="1.5"></path><path d="M1543.5 518.92L1303.46 529.08" stroke="rgba(69, 111, 200, 1)" stroke-width="1.5"></path><path d="M1609.44 645.9L1609.44 645.9" stroke="rgba(69, 111, 200, 1)" stroke-width="1.5"></path><path d="M1609.44 645.9L1445.29 556.73" stroke="rgba(69, 111, 200, 1)" stroke-width="1.5"></path><circle r="5" cx="-75.16" cy="385.3" fill="rgba(69, 111, 200, 1)"></circle><circle r="5" cx="-62.32" cy="523.23" fill="rgba(69, 111, 200, 1)"></circle><circle r="5" cx="-111.43" cy="666.54" fill="rgba(69, 111, 200, 1)"></circle><circle r="5" cx="111.85" cy="353.82" fill="rgba(69, 111, 200, 1)"></circle><circle r="5" cx="78.92" cy="540.82" fill="rgba(69, 111, 200, 1)"></circle><circle r="5" cx="85.77" cy="639.65" fill="rgba(69, 111, 200, 1)"></circle><circle r="5" cx="201.4" cy="398.6" fill="rgba(69, 111, 200, 1)"></circle><circle r="5" cx="197.46" cy="561.34" fill="rgba(69, 111, 200, 1)"></circle><circle r="5" cx="199.56" cy="703.13" fill="rgba(69, 111, 200, 1)"></circle><circle r="5" cx="347.07" cy="360.52" fill="rgba(69, 111, 200, 1)"></circle><circle r="5" cx="378.81" cy="492.39" fill="rgba(69, 111, 200, 1)"></circle><circle r="5" cx="371.66" cy="702.17" fill="rgba(69, 111, 200, 1)"></circle><circle r="5" cx="490.94" cy="381.22" fill="rgba(69, 111, 200, 1)"></circle><circle r="5" cx="507.1" cy="647.38" fill="rgba(69, 111, 200, 1)"></circle><circle r="5" cx="704.4" cy="338.02" fill="rgba(69, 111, 200, 1)"></circle><circle r="5" cx="646.44" cy="500.84" fill="rgba(69, 111, 200, 1)"></circle><circle r="5" cx="641.1" cy="661.26" fill="rgba(69, 111, 200, 1)"></circle><circle r="5" cx="846.21" cy="193.17" fill="rgba(69, 111, 200, 1)"></circle><circle r="5" cx="845.64" cy="339.52" fill="rgba(69, 111, 200, 1)"></circle><circle r="5" cx="815.22" cy="524.57" fill="rgba(69, 111, 200, 1)"></circle><circle r="5" cx="808.82" cy="639.99" fill="rgba(69, 111, 200, 1)"></circle><circle r="5" cx="1000.77" cy="-41.57" fill="rgba(69, 111, 200, 1)"></circle><circle r="5" cx="993.34" cy="204.36" fill="rgba(69, 111, 200, 1)"></circle><circle r="5" cx="960.86" cy="402.08" fill="rgba(69, 111, 200, 1)"></circle><circle r="5" cx="991.47" cy="500.42" fill="rgba(69, 111, 200, 1)"></circle><circle r="5" cx="1011.44" cy="679.46" fill="rgba(69, 111, 200, 1)"></circle><circle r="5" cx="1140.57" cy="-61.04" fill="rgba(69, 111, 200, 1)"></circle><circle r="5" cx="1125.32" cy="90.31" fill="rgba(69, 111, 200, 1)"></circle><circle r="5" cx="1154.33" cy="210.43" fill="rgba(69, 111, 200, 1)"></circle><circle r="5" cx="1157.89" cy="348.89" fill="rgba(69, 111, 200, 1)"></circle><circle r="5" cx="1154.83" cy="536.5" fill="rgba(69, 111, 200, 1)"></circle><circle r="5" cx="1133.3" cy="638.69" fill="rgba(69, 111, 200, 1)"></circle><circle r="5" cx="1280.64" cy="-73.7" fill="rgba(69, 111, 200, 1)"></circle><circle r="5" cx="1288.15" cy="60.86" fill="rgba(69, 111, 200, 1)"></circle><circle r="5" cx="1274.23" cy="232.5" fill="rgba(69, 111, 200, 1)"></circle><circle r="5" cx="1241.75" cy="390.15" fill="rgba(69, 111, 200, 1)"></circle><circle r="5" cx="1303.46" cy="529.08" fill="rgba(69, 111, 200, 1)"></circle><circle r="5" cx="1304.53" cy="694.66" fill="rgba(69, 111, 200, 1)"></circle><circle r="5" cx="1449.83" cy="-99.89" fill="rgba(69, 111, 200, 1)"></circle><circle r="5" cx="1409.01" cy="76.6" fill="rgba(69, 111, 200, 1)"></circle><circle r="5" cx="1438.81" cy="208.91" fill="rgba(69, 111, 200, 1)"></circle><circle r="5" cx="1441.35" cy="344.33" fill="rgba(69, 111, 200, 1)"></circle><circle r="5" cx="1445.29" cy="556.73" fill="rgba(69, 111, 200, 1)"></circle><circle r="5" cx="1445.75" cy="638.03" fill="rgba(69, 111, 200, 1)"></circle><circle r="5" cx="1576.67" cy="-104.04" fill="rgba(69, 111, 200, 1)"></circle><circle r="5" cx="1598.56" cy="69.34" fill="rgba(69, 111, 200, 1)"></circle><circle r="5" cx="1554.02" cy="225.39" fill="rgba(69, 111, 200, 1)"></circle><circle r="5" cx="1538.12" cy="365.42" fill="rgba(69, 111, 200, 1)"></circle><circle r="5" cx="1543.5" cy="518.92" fill="rgba(69, 111, 200, 1)"></circle><circle r="5" cx="1609.44" cy="645.9" fill="rgba(69, 111, 200, 1)"></circle><path d="M53.61 652.73L53.61 652.73" stroke="hsl(228.60000000000002, 90.2%, 10.5%)" stroke-width="1.5"></path><path d="M53.61 652.73L-53.14 644.53" stroke="hsl(228.60000000000002, 90.2%, 10.5%)" stroke-width="1.5"></path><path d="M53.61 652.73L86.82 546.09" stroke="hsl(228.60000000000002, 90.2%, 10.5%)" stroke-width="1.5"></path><path d="M53.61 652.73L-110.55 528.14" stroke="hsl(228.60000000000002, 90.2%, 10.5%)" stroke-width="1.5"></path><path d="M53.61 652.73L236.61 549.48" stroke="hsl(228.60000000000002, 90.2%, 10.5%)" stroke-width="1.5"></path><path d="M53.61 652.73L350.96 662.16" stroke="hsl(228.60000000000002, 90.2%, 10.5%)" stroke-width="1.5"></path><path d="M53.61 652.73L520.63 528.02" stroke="hsl(228.60000000000002, 90.2%, 10.5%)" stroke-width="1.5"></path><path d="M655.19 410.14L655.19 410.14" stroke="hsl(228.60000000000002, 90.2%, 10.5%)" stroke-width="1.5"></path><path d="M655.19 410.14L693.47 522.91" stroke="hsl(228.60000000000002, 90.2%, 10.5%)" stroke-width="1.5"></path><path d="M655.19 410.14L791.14 405.13" stroke="hsl(228.60000000000002, 90.2%, 10.5%)" stroke-width="1.5"></path><path d="M655.19 410.14L520.63 528.02" stroke="hsl(228.60000000000002, 90.2%, 10.5%)" stroke-width="1.5"></path><path d="M655.19 410.14L854.87 512.93" stroke="hsl(228.60000000000002, 90.2%, 10.5%)" stroke-width="1.5"></path><path d="M693.47 522.91L693.47 522.91" stroke="hsl(228.60000000000002, 90.2%, 10.5%)" stroke-width="1.5"></path><path d="M693.47 522.91L667.53 642.51" stroke="hsl(228.60000000000002, 90.2%, 10.5%)" stroke-width="1.5"></path><path d="M693.47 522.91L791.14 405.13" stroke="hsl(228.60000000000002, 90.2%, 10.5%)" stroke-width="1.5"></path><path d="M693.47 522.91L854.87 512.93" stroke="hsl(228.60000000000002, 90.2%, 10.5%)" stroke-width="1.5"></path><path d="M693.47 522.91L520.63 528.02" stroke="hsl(228.60000000000002, 90.2%, 10.5%)" stroke-width="1.5"></path><path d="M693.47 522.91L802.03 681.93" stroke="hsl(228.60000000000002, 90.2%, 10.5%)" stroke-width="1.5"></path><path d="M974.58 554.16L974.58 554.16" stroke="hsl(228.60000000000002, 90.2%, 10.5%)" stroke-width="1.5"></path><path d="M974.58 554.16L959.87 654.38" stroke="hsl(228.60000000000002, 90.2%, 10.5%)" stroke-width="1.5"></path><path d="M974.58 554.16L854.87 512.93" stroke="hsl(228.60000000000002, 90.2%, 10.5%)" stroke-width="1.5"></path><path d="M1091.48 225.83L1091.48 225.83" stroke="hsl(228.60000000000002, 90.2%, 10.5%)" stroke-width="1.5"></path><path d="M1091.48 225.83L1099.49 343.46" stroke="hsl(228.60000000000002, 90.2%, 10.5%)" stroke-width="1.5"></path><path d="M1091.48 225.83L1249.77 259.77" stroke="hsl(228.60000000000002, 90.2%, 10.5%)" stroke-width="1.5"></path><path d="M1091.48 225.83L1157.35 76.36" stroke="hsl(228.60000000000002, 90.2%, 10.5%)" stroke-width="1.5"></path><path d="M1289.64 640.22L1289.64 640.22" stroke="hsl(228.60000000000002, 90.2%, 10.5%)" stroke-width="1.5"></path><path d="M1289.64 640.22L1273.22 495.42" stroke="hsl(228.60000000000002, 90.2%, 10.5%)" stroke-width="1.5"></path><path d="M1289.64 640.22L1440.62 662.21" stroke="hsl(228.60000000000002, 90.2%, 10.5%)" stroke-width="1.5"></path><path d="M1289.64 640.22L1143.95 695.52" stroke="hsl(228.60000000000002, 90.2%, 10.5%)" stroke-width="1.5"></path><path d="M1289.64 640.22L1415.88 536.04" stroke="hsl(228.60000000000002, 90.2%, 10.5%)" stroke-width="1.5"></path><path d="M1289.64 640.22L1110.18 553.62" stroke="hsl(228.60000000000002, 90.2%, 10.5%)" stroke-width="1.5"></path><path d="M1423.11 398.79L1423.11 398.79" stroke="hsl(228.60000000000002, 90.2%, 10.5%)" stroke-width="1.5"></path><path d="M1423.11 398.79L1415.88 536.04" stroke="hsl(228.60000000000002, 90.2%, 10.5%)" stroke-width="1.5"></path><path d="M1423.11 398.79L1571.21 383.7" stroke="hsl(228.60000000000002, 90.2%, 10.5%)" stroke-width="1.5"></path><path d="M1423.11 398.79L1261.06 370.46" stroke="hsl(228.60000000000002, 90.2%, 10.5%)" stroke-width="1.5"></path><path d="M1423.11 398.79L1555.88 499.56" stroke="hsl(228.60000000000002, 90.2%, 10.5%)" stroke-width="1.5"></path><path d="M1423.11 398.79L1273.22 495.42" stroke="hsl(228.60000000000002, 90.2%, 10.5%)" stroke-width="1.5"></path><path d="M1415.88 536.04L1415.88 536.04" stroke="hsl(228.60000000000002, 90.2%, 10.5%)" stroke-width="1.5"></path><path d="M1415.88 536.04L1440.62 662.21" stroke="hsl(228.60000000000002, 90.2%, 10.5%)" stroke-width="1.5"></path><path d="M1415.88 536.04L1555.88 499.56" stroke="hsl(228.60000000000002, 90.2%, 10.5%)" stroke-width="1.5"></path><path d="M1415.88 536.04L1273.22 495.42" stroke="hsl(228.60000000000002, 90.2%, 10.5%)" stroke-width="1.5"></path><path d="M1415.88 536.04L1573.88 654.9" stroke="hsl(228.60000000000002, 90.2%, 10.5%)" stroke-width="1.5"></path><path d="M1576.01 67.4L1576.01 67.4" stroke="hsl(228.60000000000002, 90.2%, 10.5%)" stroke-width="1.5"></path><path d="M1576.01 67.4L1577.94 -87.71" stroke="hsl(228.60000000000002, 90.2%, 10.5%)" stroke-width="1.5"></path><path d="M1576.01 67.4L1401.4 83.91" stroke="hsl(228.60000000000002, 90.2%, 10.5%)" stroke-width="1.5"></path><path d="M1576.01 67.4L1440.33 -47.43" stroke="hsl(228.60000000000002, 90.2%, 10.5%)" stroke-width="1.5"></path><path d="M1576.01 67.4L1591.71 255.25" stroke="hsl(228.60000000000002, 90.2%, 10.5%)" stroke-width="1.5"></path><path d="M1576.01 67.4L1416.92 192.08" stroke="hsl(228.60000000000002, 90.2%, 10.5%)" stroke-width="1.5"></path><path d="M1576.01 67.4L1571.21 383.7" stroke="hsl(228.60000000000002, 90.2%, 10.5%)" stroke-width="1.5"></path><path d="M1571.21 383.7L1571.21 383.7" stroke="hsl(228.60000000000002, 90.2%, 10.5%)" stroke-width="1.5"></path><path d="M1571.21 383.7L1555.88 499.56" stroke="hsl(228.60000000000002, 90.2%, 10.5%)" stroke-width="1.5"></path><path d="M1571.21 383.7L1591.71 255.25" stroke="hsl(228.60000000000002, 90.2%, 10.5%)" stroke-width="1.5"></path><path d="M1555.88 499.56L1555.88 499.56" stroke="hsl(228.60000000000002, 90.2%, 10.5%)" stroke-width="1.5"></path><path d="M1555.88 499.56L1573.88 654.9" stroke="hsl(228.60000000000002, 90.2%, 10.5%)" stroke-width="1.5"></path><path d="M-110.55 528.14L-110.55 528.14" stroke="hsl(228.60000000000002, 90.2%, 10.5%)" stroke-width="1.5"></path><path d="M-110.55 528.14L-53.14 644.53" stroke="hsl(228.60000000000002, 90.2%, 10.5%)" stroke-width="1.5"></path><path d="M-110.55 528.14L86.82 546.09" stroke="hsl(228.60000000000002, 90.2%, 10.5%)" stroke-width="1.5"></path><path d="M-53.14 644.53L-53.14 644.53" stroke="hsl(228.60000000000002, 90.2%, 10.5%)" stroke-width="1.5"></path><path d="M-53.14 644.53L86.82 546.09" stroke="hsl(228.60000000000002, 90.2%, 10.5%)" stroke-width="1.5"></path><path d="M-53.14 644.53L236.61 549.48" stroke="hsl(228.60000000000002, 90.2%, 10.5%)" stroke-width="1.5"></path><path d="M-53.14 644.53L350.96 662.16" stroke="hsl(228.60000000000002, 90.2%, 10.5%)" stroke-width="1.5"></path><path d="M86.82 546.09L86.82 546.09" stroke="hsl(228.60000000000002, 90.2%, 10.5%)" stroke-width="1.5"></path><path d="M86.82 546.09L236.61 549.48" stroke="hsl(228.60000000000002, 90.2%, 10.5%)" stroke-width="1.5"></path><path d="M236.61 549.48L236.61 549.48" stroke="hsl(228.60000000000002, 90.2%, 10.5%)" stroke-width="1.5"></path><path d="M236.61 549.48L350.96 662.16" stroke="hsl(228.60000000000002, 90.2%, 10.5%)" stroke-width="1.5"></path><path d="M236.61 549.48L520.63 528.02" stroke="hsl(228.60000000000002, 90.2%, 10.5%)" stroke-width="1.5"></path><path d="M236.61 549.48L-110.55 528.14" stroke="hsl(228.60000000000002, 90.2%, 10.5%)" stroke-width="1.5"></path><path d="M350.96 662.16L350.96 662.16" stroke="hsl(228.60000000000002, 90.2%, 10.5%)" stroke-width="1.5"></path><path d="M350.96 662.16L562 684.47" stroke="hsl(228.60000000000002, 90.2%, 10.5%)" stroke-width="1.5"></path><path d="M350.96 662.16L520.63 528.02" stroke="hsl(228.60000000000002, 90.2%, 10.5%)" stroke-width="1.5"></path><path d="M520.63 528.02L520.63 528.02" stroke="hsl(228.60000000000002, 90.2%, 10.5%)" stroke-width="1.5"></path><path d="M520.63 528.02L562 684.47" stroke="hsl(228.60000000000002, 90.2%, 10.5%)" stroke-width="1.5"></path><path d="M520.63 528.02L667.53 642.51" stroke="hsl(228.60000000000002, 90.2%, 10.5%)" stroke-width="1.5"></path><path d="M562 684.47L562 684.47" stroke="hsl(228.60000000000002, 90.2%, 10.5%)" stroke-width="1.5"></path><path d="M562 684.47L667.53 642.51" stroke="hsl(228.60000000000002, 90.2%, 10.5%)" stroke-width="1.5"></path><path d="M667.53 642.51L667.53 642.51" stroke="hsl(228.60000000000002, 90.2%, 10.5%)" stroke-width="1.5"></path><path d="M667.53 642.51L802.03 681.93" stroke="hsl(228.60000000000002, 90.2%, 10.5%)" stroke-width="1.5"></path><path d="M667.53 642.51L854.87 512.93" stroke="hsl(228.60000000000002, 90.2%, 10.5%)" stroke-width="1.5"></path><path d="M667.53 642.51L655.19 410.14" stroke="hsl(228.60000000000002, 90.2%, 10.5%)" stroke-width="1.5"></path><path d="M791.14 405.13L791.14 405.13" stroke="hsl(228.60000000000002, 90.2%, 10.5%)" stroke-width="1.5"></path><path d="M791.14 405.13L854.87 512.93" stroke="hsl(228.60000000000002, 90.2%, 10.5%)" stroke-width="1.5"></path><path d="M854.87 512.93L854.87 512.93" stroke="hsl(228.60000000000002, 90.2%, 10.5%)" stroke-width="1.5"></path><path d="M854.87 512.93L968.64 391.42" stroke="hsl(228.60000000000002, 90.2%, 10.5%)" stroke-width="1.5"></path><path d="M854.87 512.93L959.87 654.38" stroke="hsl(228.60000000000002, 90.2%, 10.5%)" stroke-width="1.5"></path><path d="M802.03 681.93L802.03 681.93" stroke="hsl(228.60000000000002, 90.2%, 10.5%)" stroke-width="1.5"></path><path d="M802.03 681.93L959.87 654.38" stroke="hsl(228.60000000000002, 90.2%, 10.5%)" stroke-width="1.5"></path><path d="M802.03 681.93L854.87 512.93" stroke="hsl(228.60000000000002, 90.2%, 10.5%)" stroke-width="1.5"></path><path d="M802.03 681.93L974.58 554.16" stroke="hsl(228.60000000000002, 90.2%, 10.5%)" stroke-width="1.5"></path><path d="M968.64 391.42L968.64 391.42" stroke="hsl(228.60000000000002, 90.2%, 10.5%)" stroke-width="1.5"></path><path d="M968.64 391.42L1099.49 343.46" stroke="hsl(228.60000000000002, 90.2%, 10.5%)" stroke-width="1.5"></path><path d="M968.64 391.42L974.58 554.16" stroke="hsl(228.60000000000002, 90.2%, 10.5%)" stroke-width="1.5"></path><path d="M959.87 654.38L959.87 654.38" stroke="hsl(228.60000000000002, 90.2%, 10.5%)" stroke-width="1.5"></path><path d="M1157.35 76.36L1157.35 76.36" stroke="hsl(228.60000000000002, 90.2%, 10.5%)" stroke-width="1.5"></path><path d="M1157.35 76.36L1281.17 -81.27" stroke="hsl(228.60000000000002, 90.2%, 10.5%)" stroke-width="1.5"></path><path d="M1157.35 76.36L1249.77 259.77" stroke="hsl(228.60000000000002, 90.2%, 10.5%)" stroke-width="1.5"></path><path d="M1099.49 343.46L1099.49 343.46" stroke="hsl(228.60000000000002, 90.2%, 10.5%)" stroke-width="1.5"></path><path d="M1099.49 343.46L1261.06 370.46" stroke="hsl(228.60000000000002, 90.2%, 10.5%)" stroke-width="1.5"></path><path d="M1099.49 343.46L1249.77 259.77" stroke="hsl(228.60000000000002, 90.2%, 10.5%)" stroke-width="1.5"></path><path d="M1110.18 553.62L1110.18 553.62" stroke="hsl(228.60000000000002, 90.2%, 10.5%)" stroke-width="1.5"></path><path d="M1110.18 553.62L974.58 554.16" stroke="hsl(228.60000000000002, 90.2%, 10.5%)" stroke-width="1.5"></path><path d="M1110.18 553.62L1143.95 695.52" stroke="hsl(228.60000000000002, 90.2%, 10.5%)" stroke-width="1.5"></path><path d="M1110.18 553.62L1273.22 495.42" stroke="hsl(228.60000000000002, 90.2%, 10.5%)" stroke-width="1.5"></path><path d="M1110.18 553.62L959.87 654.38" stroke="hsl(228.60000000000002, 90.2%, 10.5%)" stroke-width="1.5"></path><path d="M1110.18 553.62L1099.49 343.46" stroke="hsl(228.60000000000002, 90.2%, 10.5%)" stroke-width="1.5"></path><path d="M1143.95 695.52L1143.95 695.52" stroke="hsl(228.60000000000002, 90.2%, 10.5%)" stroke-width="1.5"></path><path d="M1281.17 -81.27L1281.17 -81.27" stroke="hsl(228.60000000000002, 90.2%, 10.5%)" stroke-width="1.5"></path><path d="M1281.17 -81.27L1440.33 -47.43" stroke="hsl(228.60000000000002, 90.2%, 10.5%)" stroke-width="1.5"></path><path d="M1281.17 -81.27L1401.4 83.91" stroke="hsl(228.60000000000002, 90.2%, 10.5%)" stroke-width="1.5"></path><path d="M1281.17 -81.27L1577.94 -87.71" stroke="hsl(228.60000000000002, 90.2%, 10.5%)" stroke-width="1.5"></path><path d="M1281.17 -81.27L1416.92 192.08" stroke="hsl(228.60000000000002, 90.2%, 10.5%)" stroke-width="1.5"></path><path d="M1249.77 259.77L1249.77 259.77" stroke="hsl(228.60000000000002, 90.2%, 10.5%)" stroke-width="1.5"></path><path d="M1249.77 259.77L1261.06 370.46" stroke="hsl(228.60000000000002, 90.2%, 10.5%)" stroke-width="1.5"></path><path d="M1249.77 259.77L1416.92 192.08" stroke="hsl(228.60000000000002, 90.2%, 10.5%)" stroke-width="1.5"></path><path d="M1261.06 370.46L1261.06 370.46" stroke="hsl(228.60000000000002, 90.2%, 10.5%)" stroke-width="1.5"></path><path d="M1261.06 370.46L1273.22 495.42" stroke="hsl(228.60000000000002, 90.2%, 10.5%)" stroke-width="1.5"></path><path d="M1273.22 495.42L1273.22 495.42" stroke="hsl(228.60000000000002, 90.2%, 10.5%)" stroke-width="1.5"></path><path d="M1440.33 -47.43L1440.33 -47.43" stroke="hsl(228.60000000000002, 90.2%, 10.5%)" stroke-width="1.5"></path><path d="M1440.33 -47.43L1401.4 83.91" stroke="hsl(228.60000000000002, 90.2%, 10.5%)" stroke-width="1.5"></path><path d="M1440.33 -47.43L1577.94 -87.71" stroke="hsl(228.60000000000002, 90.2%, 10.5%)" stroke-width="1.5"></path><path d="M1440.33 -47.43L1416.92 192.08" stroke="hsl(228.60000000000002, 90.2%, 10.5%)" stroke-width="1.5"></path><path d="M1440.33 -47.43L1157.35 76.36" stroke="hsl(228.60000000000002, 90.2%, 10.5%)" stroke-width="1.5"></path><path d="M1401.4 83.91L1401.4 83.91" stroke="hsl(228.60000000000002, 90.2%, 10.5%)" stroke-width="1.5"></path><path d="M1401.4 83.91L1416.92 192.08" stroke="hsl(228.60000000000002, 90.2%, 10.5%)" stroke-width="1.5"></path><path d="M1416.92 192.08L1416.92 192.08" stroke="hsl(228.60000000000002, 90.2%, 10.5%)" stroke-width="1.5"></path><path d="M1440.62 662.21L1440.62 662.21" stroke="hsl(228.60000000000002, 90.2%, 10.5%)" stroke-width="1.5"></path><path d="M1440.62 662.21L1573.88 654.9" stroke="hsl(228.60000000000002, 90.2%, 10.5%)" stroke-width="1.5"></path><path d="M1440.62 662.21L1555.88 499.56" stroke="hsl(228.60000000000002, 90.2%, 10.5%)" stroke-width="1.5"></path><path d="M1577.94 -87.71L1577.94 -87.71" stroke="hsl(228.60000000000002, 90.2%, 10.5%)" stroke-width="1.5"></path><path d="M1577.94 -87.71L1401.4 83.91" stroke="hsl(228.60000000000002, 90.2%, 10.5%)" stroke-width="1.5"></path><path d="M1591.71 255.25L1591.71 255.25" stroke="hsl(228.60000000000002, 90.2%, 10.5%)" stroke-width="1.5"></path><path d="M1591.71 255.25L1416.92 192.08" stroke="hsl(228.60000000000002, 90.2%, 10.5%)" stroke-width="1.5"></path><path d="M1573.88 654.9L1573.88 654.9" stroke="hsl(228.60000000000002, 90.2%, 10.5%)" stroke-width="1.5"></path><path d="M1573.88 654.9L1571.21 383.7" stroke="hsl(228.60000000000002, 90.2%, 10.5%)" stroke-width="1.5"></path><path d="M1573.88 654.9L1289.64 640.22" stroke="hsl(228.60000000000002, 90.2%, 10.5%)" stroke-width="1.5"></path><path d="M1573.88 654.9L1423.11 398.79" stroke="hsl(228.60000000000002, 90.2%, 10.5%)" stroke-width="1.5"></path><circle r="25" cx="53.61" cy="652.73" fill="url(#SvgjsRadialGradient1011)"></circle><circle r="25" cx="655.19" cy="410.14" fill="url(#SvgjsRadialGradient1011)"></circle><circle r="25" cx="693.47" cy="522.91" fill="url(#SvgjsRadialGradient1011)"></circle><circle r="25" cx="974.58" cy="554.16" fill="url(#SvgjsRadialGradient1011)"></circle><circle r="25" cx="1091.48" cy="225.83" fill="url(#SvgjsRadialGradient1011)"></circle><circle r="25" cx="1289.64" cy="640.22" fill="url(#SvgjsRadialGradient1011)"></circle><circle r="25" cx="1423.11" cy="398.79" fill="url(#SvgjsRadialGradient1011)"></circle><circle r="25" cx="1415.88" cy="536.04" fill="url(#SvgjsRadialGradient1011)"></circle><circle r="25" cx="1576.01" cy="67.4" fill="url(#SvgjsRadialGradient1011)"></circle><circle r="25" cx="1571.21" cy="383.7" fill="url(#SvgjsRadialGradient1011)"></circle><circle r="25" cx="1555.88" cy="499.56" fill="url(#SvgjsRadialGradient1011)"></circle><circle r="5" cx="-110.55" cy="528.14" fill="#818493"></circle><circle r="5" cx="-53.14" cy="644.53" fill="#818493"></circle><circle r="5" cx="86.82" cy="546.09" fill="#818493"></circle><circle r="5" cx="236.61" cy="549.48" fill="#818493"></circle><circle r="5" cx="350.96" cy="662.16" fill="#818493"></circle><circle r="5" cx="520.63" cy="528.02" fill="#818493"></circle><circle r="5" cx="562" cy="684.47" fill="#818493"></circle><circle r="5" cx="667.53" cy="642.51" fill="#818493"></circle><circle r="5" cx="791.14" cy="405.13" fill="#818493"></circle><circle r="5" cx="854.87" cy="512.93" fill="#818493"></circle><circle r="5" cx="802.03" cy="681.93" fill="#818493"></circle><circle r="5" cx="968.64" cy="391.42" fill="#818493"></circle><circle r="5" cx="959.87" cy="654.38" fill="#818493"></circle><circle r="5" cx="1157.35" cy="76.36" fill="#818493"></circle><circle r="5" cx="1099.49" cy="343.46" fill="#818493"></circle><circle r="5" cx="1110.18" cy="553.62" fill="#818493"></circle><circle r="5" cx="1143.95" cy="695.52" fill="#818493"></circle><circle r="5" cx="1281.17" cy="-81.27" fill="#818493"></circle><circle r="5" cx="1249.77" cy="259.77" fill="#818493"></circle><circle r="5" cx="1261.06" cy="370.46" fill="#818493"></circle><circle r="5" cx="1273.22" cy="495.42" fill="#818493"></circle><circle r="5" cx="1440.33" cy="-47.43" fill="#818493"></circle><circle r="5" cx="1401.4" cy="83.91" fill="#818493"></circle><circle r="5" cx="1416.92" cy="192.08" fill="#818493"></circle><circle r="5" cx="1440.62" cy="662.21" fill="#818493"></circle><circle r="5" cx="1577.94" cy="-87.71" fill="#818493"></circle><circle r="5" cx="1591.71" cy="255.25" fill="#818493"></circle><circle r="5" cx="1573.88" cy="654.9" fill="#818493"></circle></g><defs><mask id="SvgjsMask1010"><rect width="1440" height="560" fill="#ffffff"></rect></mask><radialGradient id="SvgjsRadialGradient1011"><stop stop-color="#ffffff" offset="0.1"></stop><stop stop-color="rgba(2, 9, 39, 1)" offset="0.2"></stop><stop stop-color="rgba(2, 9, 39, 0)" offset="1"></stop></radialGradient></defs></svg>